<mxfile host="app.diagrams.net" agent="Mozilla/5.0 (Windows NT 10.0; Win64; x64) AppleWebKit/537.36 (KHTML, like Gecko) Chrome/132.0.0.0 Safari/537.36" version="24.8.3">
  <diagram name="Page-1" id="poiSn0I1tjzoxU0-kmSW">
    <mxGraphModel dx="1313" dy="653" grid="1" gridSize="10" guides="1" tooltips="1" connect="1" arrows="1" fold="1" page="1" pageScale="1" pageWidth="850" pageHeight="1100" math="0" shadow="0">
      <root>
        <mxCell id="0" />
        <mxCell id="1" parent="0" />
        <mxCell id="-DTzdo4abKxMV6AHpYTJ-5" style="edgeStyle=orthogonalEdgeStyle;rounded=0;orthogonalLoop=1;jettySize=auto;html=1;exitX=1;exitY=0.5;exitDx=0;exitDy=0;entryX=0;entryY=0.5;entryDx=0;entryDy=0;" edge="1" parent="1" source="-DTzdo4abKxMV6AHpYTJ-1" target="-DTzdo4abKxMV6AHpYTJ-2">
          <mxGeometry relative="1" as="geometry" />
        </mxCell>
        <mxCell id="-DTzdo4abKxMV6AHpYTJ-1" value="Camera" style="rounded=1;whiteSpace=wrap;html=1;" vertex="1" parent="1">
          <mxGeometry x="140" y="260" width="120" height="60" as="geometry" />
        </mxCell>
        <mxCell id="-DTzdo4abKxMV6AHpYTJ-6" style="edgeStyle=orthogonalEdgeStyle;rounded=0;orthogonalLoop=1;jettySize=auto;html=1;exitX=1;exitY=0.5;exitDx=0;exitDy=0;entryX=0;entryY=0.5;entryDx=0;entryDy=0;" edge="1" parent="1" source="-DTzdo4abKxMV6AHpYTJ-2" target="-DTzdo4abKxMV6AHpYTJ-3">
          <mxGeometry relative="1" as="geometry" />
        </mxCell>
        <mxCell id="-DTzdo4abKxMV6AHpYTJ-2" value="Detect Face" style="rounded=1;whiteSpace=wrap;html=1;" vertex="1" parent="1">
          <mxGeometry x="290" y="260" width="120" height="60" as="geometry" />
        </mxCell>
        <mxCell id="-DTzdo4abKxMV6AHpYTJ-7" style="edgeStyle=orthogonalEdgeStyle;rounded=0;orthogonalLoop=1;jettySize=auto;html=1;exitX=1;exitY=0.5;exitDx=0;exitDy=0;entryX=0;entryY=0.5;entryDx=0;entryDy=0;" edge="1" parent="1" source="-DTzdo4abKxMV6AHpYTJ-3" target="-DTzdo4abKxMV6AHpYTJ-4">
          <mxGeometry relative="1" as="geometry" />
        </mxCell>
        <mxCell id="-DTzdo4abKxMV6AHpYTJ-3" value="Crop and Transforms&lt;div&gt;detected face image&lt;/div&gt;" style="rounded=1;whiteSpace=wrap;html=1;" vertex="1" parent="1">
          <mxGeometry x="450" y="260" width="120" height="60" as="geometry" />
        </mxCell>
        <mxCell id="-DTzdo4abKxMV6AHpYTJ-11" style="edgeStyle=orthogonalEdgeStyle;rounded=0;orthogonalLoop=1;jettySize=auto;html=1;exitX=1;exitY=0.5;exitDx=0;exitDy=0;entryX=0;entryY=0.5;entryDx=0;entryDy=0;" edge="1" parent="1" source="-DTzdo4abKxMV6AHpYTJ-4" target="-DTzdo4abKxMV6AHpYTJ-10">
          <mxGeometry relative="1" as="geometry" />
        </mxCell>
        <mxCell id="-DTzdo4abKxMV6AHpYTJ-4" value="Run image through model" style="rounded=1;whiteSpace=wrap;html=1;" vertex="1" parent="1">
          <mxGeometry x="600" y="260" width="120" height="60" as="geometry" />
        </mxCell>
        <mxCell id="-DTzdo4abKxMV6AHpYTJ-9" style="edgeStyle=orthogonalEdgeStyle;rounded=0;orthogonalLoop=1;jettySize=auto;html=1;exitX=1;exitY=0.5;exitDx=0;exitDy=0;entryX=0;entryY=0.5;entryDx=0;entryDy=0;" edge="1" parent="1" source="-DTzdo4abKxMV6AHpYTJ-8" target="-DTzdo4abKxMV6AHpYTJ-1">
          <mxGeometry relative="1" as="geometry" />
        </mxCell>
        <mxCell id="-DTzdo4abKxMV6AHpYTJ-8" value="Start" style="ellipse;whiteSpace=wrap;html=1;aspect=fixed;" vertex="1" parent="1">
          <mxGeometry x="20" y="250" width="80" height="80" as="geometry" />
        </mxCell>
        <mxCell id="-DTzdo4abKxMV6AHpYTJ-12" style="edgeStyle=orthogonalEdgeStyle;rounded=0;orthogonalLoop=1;jettySize=auto;html=1;exitX=0.5;exitY=1;exitDx=0;exitDy=0;entryX=0.5;entryY=1;entryDx=0;entryDy=0;" edge="1" parent="1" source="-DTzdo4abKxMV6AHpYTJ-10" target="-DTzdo4abKxMV6AHpYTJ-8">
          <mxGeometry relative="1" as="geometry">
            <Array as="points">
              <mxPoint x="785" y="370" />
              <mxPoint x="60" y="370" />
            </Array>
          </mxGeometry>
        </mxCell>
        <mxCell id="-DTzdo4abKxMV6AHpYTJ-10" value="Get Output" style="ellipse;whiteSpace=wrap;html=1;aspect=fixed;" vertex="1" parent="1">
          <mxGeometry x="745" y="250" width="80" height="80" as="geometry" />
        </mxCell>
        <mxCell id="-DTzdo4abKxMV6AHpYTJ-13" value="Output stays for x seconds until start again" style="text;html=1;align=center;verticalAlign=middle;whiteSpace=wrap;rounded=0;" vertex="1" parent="1">
          <mxGeometry x="350" y="390" width="160" height="30" as="geometry" />
        </mxCell>
      </root>
    </mxGraphModel>
  </diagram>
</mxfile>
